<?xml version="1.0" encoding="utf-8"?>
<!-- Generator: Adobe Illustrator 22.0.0, SVG Export Plug-In . SVG Version: 6.00 Build 0)  -->
<svg version="1.1" id="Layer_1" xmlns="http://www.w3.org/2000/svg" xmlns:xlink="http://www.w3.org/1999/xlink" x="0px" y="0px"
	 viewBox="0 0 218 48" enable-background="new 0 0 218 48" xml:space="preserve">
<path fill="#1DD8A3" d="M85.3,32.8h-3.6L76,22.7l-3.4,4.1v5.9h-3.1V12.4h3.1v10.2l8.3-10.2h3.8l-6.6,8L85.3,32.8z"/>
<path fill="#1DD8A3" d="M99.4,32.8h-2.9v-1.3c-0.5,0.5-1.1,0.9-1.7,1.2c-0.6,0.2-1.3,0.3-2.2,0.3c-0.9,0-1.6-0.1-2.3-0.3
	c-0.7-0.2-1.2-0.5-1.6-1c-0.8-0.8-1.2-1.8-1.2-3.1c0-0.8,0.2-1.5,0.6-2.2c0.4-0.6,1-1.1,1.7-1.5c0.7-0.3,1.7-0.5,2.7-0.5h3.9v-1
	c0-0.9-0.3-1.6-0.8-2c-0.5-0.4-1.3-0.7-2.4-0.7c-0.8,0-1.4,0.1-1.9,0.3c-0.5,0.2-0.9,0.6-1.3,1.1l-1.9-1.8c0.7-0.8,1.4-1.3,2.2-1.7
	c0.8-0.3,1.8-0.5,3-0.5c4,0,6,1.7,6,5V32.8z M96.5,27.5v-1.2h-3.4c-0.8,0-1.5,0.2-1.9,0.5c-0.4,0.3-0.7,0.9-0.7,1.5
	c0,1.4,0.9,2,2.7,2c0.6,0,1.2,0,1.6-0.2c0.4-0.1,0.8-0.3,1.2-0.7C96.3,29.3,96.5,28.5,96.5,27.5z"/>
<path fill="#1DD8A3" d="M115.7,32.8h-2.9V24c0-0.7-0.1-1.3-0.4-1.8c-0.3-0.5-0.6-0.8-1-1.1c-0.4-0.2-0.9-0.3-1.5-0.3
	c-0.9,0-1.6,0.3-2.2,0.8c-0.6,0.5-0.8,1.3-0.8,2.4v8.8h-2.9V18.3h2.9v1.5c0.5-0.5,1.1-0.9,1.7-1.2c0.7-0.3,1.4-0.4,2.1-0.4
	c1.5,0,2.7,0.4,3.6,1.3c1,0.9,1.5,2.3,1.5,4.1L115.7,32.8L115.7,32.8z"/>
<path fill="#1DD8A3" d="M130.9,28.3c0,1-0.3,1.8-0.8,2.5c-0.5,0.7-1.2,1.2-2.1,1.5c-0.9,0.3-2,0.5-3.2,0.5c-0.9,0-1.7-0.1-2.3-0.2
	c-0.7-0.1-1.3-0.3-2-0.6c-0.6-0.3-1.2-0.7-1.8-1.3l1.9-1.9c1,1,2.4,1.5,4.2,1.5c0.6,0,1.2-0.1,1.6-0.2c0.5-0.2,0.9-0.4,1.2-0.7
	c0.3-0.3,0.4-0.7,0.4-1.1c0-1-0.7-1.6-1.9-1.7l-2.3-0.2c-0.9-0.1-1.7-0.3-2.3-0.6c-0.7-0.3-1.1-0.7-1.5-1.3
	c-0.3-0.6-0.5-1.3-0.5-2.1c0-1.4,0.5-2.5,1.5-3.2c1-0.8,2.3-1.2,3.9-1.2c2.3,0,4.1,0.5,5.4,1.6l-1.8,1.8c-0.8-0.7-2-1.1-3.6-1.1
	c-0.8,0-1.5,0.2-2,0.5c-0.5,0.3-0.7,0.8-0.7,1.4c0,1,0.7,1.5,2,1.7l2.3,0.2c0.9,0.1,1.7,0.3,2.3,0.6c0.7,0.3,1.2,0.8,1.5,1.3
	C130.7,26.8,130.9,27.5,130.9,28.3z"/>
<path fill="#1DD8A3" d="M145.8,25.5c0,1.3-0.1,2.5-0.3,3.4c-0.2,0.9-0.7,1.7-1.3,2.3c-1.1,1.2-2.5,1.7-4.4,1.7
	c-1.8,0-3.2-0.6-4.3-1.7c-0.7-0.7-1.1-1.5-1.3-2.3c-0.2-0.9-0.4-2-0.4-3.4c0-1.3,0.1-2.4,0.4-3.3c0.3-0.9,0.7-1.7,1.3-2.4
	c0.3-0.3,0.7-0.6,1.1-0.9c0.4-0.3,0.9-0.5,1.5-0.6c0.5-0.2,1.2-0.2,1.8-0.2c1,0,1.8,0.2,2.5,0.5c0.7,0.3,1.3,0.7,1.8,1.2
	c0.7,0.7,1.1,1.5,1.3,2.3C145.7,23.1,145.8,24.2,145.8,25.5z M142.9,25.5c0-1-0.1-1.7-0.2-2.4c-0.1-0.7-0.4-1.2-0.8-1.6
	c-0.5-0.5-1.2-0.8-2.1-0.8c-0.8,0-1.6,0.3-2.1,0.8c-0.4,0.4-0.7,0.9-0.8,1.6c-0.1,0.7-0.2,1.4-0.2,2.4c0,0.9,0.1,1.7,0.2,2.4
	c0.1,0.7,0.4,1.2,0.8,1.6c0.6,0.6,1.3,0.8,2.1,0.8c0.8,0,1.6-0.3,2.1-0.8c0.4-0.4,0.7-0.9,0.8-1.6C142.9,27.3,142.9,26.5,142.9,25.5
	z"/>
<path d="M162.5,26.7c-0.2,1-0.5,1.9-0.9,2.7c-0.4,0.8-1,1.5-1.6,2c-0.6,0.5-1.3,0.9-2.2,1.2c-0.8,0.3-1.7,0.4-2.6,0.4
	c-0.7,0-1.4-0.1-2-0.2c-0.6-0.2-1.2-0.4-1.8-0.7c-0.6-0.3-1.1-0.7-1.5-1.2c-0.6-0.7-1.1-1.3-1.4-2.1c-0.3-0.7-0.5-1.5-0.5-2.4
	c-0.1-0.8-0.1-2.1-0.1-3.7c0-1.2,0-2.2,0-3c0-0.7,0.1-1.4,0.2-2c0.1-0.6,0.3-1.2,0.6-1.7c0.3-0.5,0.7-1,1.2-1.5
	c0.7-0.7,1.5-1.2,2.4-1.6c0.9-0.4,1.9-0.5,2.9-0.5c1.9,0,3.5,0.5,4.8,1.6c1.3,1.1,2.1,2.6,2.5,4.7h-3.2c-0.2-1.1-0.7-1.9-1.4-2.5
	c-0.7-0.6-1.6-0.9-2.7-0.9c-0.6,0-1.2,0.1-1.7,0.3c-0.5,0.2-1,0.5-1.3,0.9c-0.3,0.3-0.5,0.6-0.6,0.9c-0.2,0.3-0.3,0.7-0.3,1.2
	c-0.1,0.5-0.2,1-0.2,1.7c0,0.6,0,1.5,0,2.6c0,1.1,0,1.9,0,2.5c0,0.6,0.1,1.2,0.2,1.7c0.1,0.5,0.2,0.9,0.3,1.2
	c0.2,0.3,0.3,0.6,0.6,0.9c0.3,0.4,0.8,0.7,1.3,0.9c0.5,0.2,1.1,0.3,1.7,0.3c0.7,0,1.4-0.2,1.9-0.4c0.6-0.3,1-0.7,1.4-1.2
	c0.4-0.5,0.7-1.2,0.8-1.8h3.1V26.7z"/>
<path d="M171.9,32.8h-1.8c-1.3,0-2.3-0.4-3-1.2c-0.7-0.8-1-1.7-1-2.9V12.4h2.9v16.2c0,0.6,0.1,1,0.3,1.3c0.2,0.3,0.7,0.4,1.2,0.4
	h1.3V32.8z"/>
<path d="M186.5,25.5c0,1.3-0.1,2.5-0.3,3.4c-0.2,0.9-0.7,1.7-1.3,2.3c-1.1,1.2-2.5,1.7-4.4,1.7c-1.8,0-3.2-0.6-4.3-1.7
	c-0.7-0.7-1.1-1.5-1.3-2.3c-0.2-0.9-0.4-2-0.4-3.4c0-1.3,0.1-2.4,0.4-3.3c0.3-0.9,0.7-1.7,1.3-2.4c0.3-0.3,0.7-0.6,1.1-0.9
	c0.4-0.3,0.9-0.5,1.5-0.6s1.2-0.2,1.8-0.2c1,0,1.8,0.2,2.5,0.5c0.7,0.3,1.3,0.7,1.8,1.2c0.7,0.7,1.1,1.5,1.3,2.3
	C186.4,23.1,186.5,24.2,186.5,25.5z M183.6,25.5c0-1-0.1-1.7-0.2-2.4c-0.1-0.7-0.4-1.2-0.8-1.6c-0.5-0.5-1.2-0.8-2.1-0.8
	c-0.8,0-1.6,0.3-2.1,0.8c-0.4,0.4-0.7,0.9-0.8,1.6c-0.1,0.7-0.2,1.4-0.2,2.4c0,0.9,0.1,1.7,0.2,2.4c0.1,0.7,0.4,1.2,0.8,1.6
	c0.6,0.6,1.3,0.8,2.1,0.8c0.8,0,1.6-0.3,2.1-0.8c0.4-0.4,0.7-0.9,0.8-1.6C183.6,27.3,183.6,26.5,183.6,25.5z"/>
<path d="M202.1,32.8h-2.9v-1.5c-0.5,0.5-1.1,0.9-1.8,1.2c-0.7,0.3-1.4,0.4-2.1,0.4c-1.5,0-2.7-0.4-3.6-1.3c-0.5-0.5-0.9-1.1-1.1-1.8
	c-0.2-0.7-0.3-1.4-0.3-2.3v-9.2h2.9v8.8c0,1.1,0.3,1.9,0.8,2.4c0.5,0.5,1.2,0.8,2.1,0.8c0.9,0,1.6-0.3,2.2-0.8
	c0.6-0.5,0.8-1.3,0.8-2.4v-8.8h2.9L202.1,32.8L202.1,32.8z"/>
<path d="M217.9,32.8h-2.9v-1.5c-0.3,0.5-0.7,0.8-1.1,1c-0.4,0.2-0.8,0.4-1.2,0.5c-0.4,0.1-0.9,0.2-1.5,0.2c-0.7,0-1.4-0.1-2-0.3
	c-0.6-0.2-1.1-0.5-1.5-0.9c-0.5-0.5-0.8-1-1-1.7c-0.2-0.7-0.4-1.3-0.5-2c-0.1-0.7-0.1-1.5-0.1-2.4s0-1.7,0.1-2.4
	c0.1-0.7,0.2-1.4,0.5-2s0.6-1.2,1-1.7c0.4-0.4,0.9-0.7,1.5-1c0.6-0.2,1.3-0.3,2-0.3c0.8,0,1.5,0.1,2.1,0.3c0.6,0.2,1.2,0.7,1.7,1.3
	v-7.3h2.9V32.8z M215,25.5c0-1-0.1-1.8-0.2-2.5c-0.2-0.7-0.5-1.2-0.9-1.7s-1.1-0.6-1.9-0.6c-0.8,0-1.5,0.2-1.9,0.6
	c-0.5,0.4-0.7,1-0.9,1.7c-0.2,0.7-0.2,1.5-0.2,2.5c0,1,0.1,1.8,0.2,2.5c0.2,0.7,0.5,1.2,0.9,1.7c0.5,0.4,1.1,0.6,1.9,0.6
	c1.2,0,2-0.4,2.4-1.3C214.8,28.2,215,27,215,25.5z"/>
<path d="M48.8,36.9h-0.2c-0.5,0-1-0.4-1-1s0.4-1,1-1h0.2c5.8,0,10.5-4.7,10.5-10.5c0-5.2-3.7-9.6-8.9-10.4c-0.4-0.1-0.7-0.3-0.8-0.7
	c-1.1-3.9-4.7-6.7-8.7-6.7c-1.8,0-3.6,0.5-5,1.5c-0.5,0.3-1,0.2-1.3-0.3c-2-2.9-5.2-4.5-8.6-4.5c-5.8,0-10.5,4.7-10.5,10.5
	c0,0.5,0,1.1,0.2,1.7c0,0.3,0,0.6-0.3,0.8c-0.2,0.2-0.5,0.3-0.8,0.3c-0.3,0-0.7-0.1-1-0.1c-5,0-9.1,4.1-9.1,9.1c0,5,4.1,9.1,9.1,9.1
	h1.3c0.5,0,1,0.4,1,1s-0.4,1-1,1h-1.3c-6.1,0-11-5-11-11c0-6.1,5-11,11-11c0-0.3,0-0.6,0-0.8c0-6.9,5.6-12.4,12.4-12.4
	c3.8,0,7.3,1.7,9.7,4.6c1.6-0.9,3.5-1.4,5.4-1.4c4.7,0,8.9,3,10.4,7.5c5.8,1.2,9.9,6.2,9.9,12.2C61.2,31.3,55.7,36.9,48.8,36.9z"/>
<path d="M48.8,38.4h-0.2c-1.4,0-2.5-1.1-2.5-2.5s1.1-2.5,2.5-2.5h0.2c4.9,0,9-4,9-9c0-4.4-3.2-8.2-7.6-8.8c-1-0.2-1.8-0.8-2-1.8
	c-0.9-3.2-3.9-5.5-7.2-5.5c-1.5,0-3,0.4-4.2,1.3c-1.2,0.8-2.7,0.5-3.5-0.7c-1.7-2.4-4.4-3.9-7.4-3.9c-4.9,0-9,4-9,9
	c0,0.5,0,0.9,0.2,1.5c0.1,0.8-0.1,1.6-0.7,2.2c-0.5,0.6-1.3,0.8-2.1,0.8c-0.3,0-0.6,0-0.8,0c-4.2,0-7.5,3.4-7.5,7.5
	c0,4.2,3.4,7.5,7.5,7.5h1.3c1.4,0,2.5,1.1,2.5,2.5c0,1.4-1.1,2.5-2.5,2.5h-1.3C6.5,38.5,0.9,32.9,0.9,26c0-6.4,4.8-11.7,11-12.5
	C12.1,6,18.3,0,25.8,0c3.8,0,7.4,1.5,10.1,4.3c1.6-0.7,3.3-1,5-1c5.1,0,9.6,3.1,11.6,7.7c6.1,1.7,10.3,7.1,10.3,13.5
	C62.8,32.2,56.5,38.4,48.8,38.4z"/>
<path fill="#1DD8A3" d="M29.2,46.9c-0.1,0-0.2,0-0.2-0.1C29,46.8,29.1,46.8,29.2,46.9c0.2,0,0.3,0,0.4,0c-0.3-0.1-0.7-0.2-1-0.3
	c-0.3-0.1-0.7-0.2-1-0.3c-0.1,0-0.2-0.1-0.3-0.1c-0.1,0-0.2-0.1-0.3-0.1c-0.1,0-0.2-0.1-0.3-0.1l-0.1,0l-0.1,0L26,45.7
	c-0.2-0.1-0.3-0.2-0.5-0.2c-0.7-0.3-1.3-0.7-1.8-1c-0.2-0.1-0.3-0.2-0.4-0.3c0,0-0.1,0-0.1-0.1c0,0-0.1,0-0.1-0.1
	c-0.1,0-0.1-0.1-0.2-0.2c-0.3-0.2-0.5-0.4-0.7-0.5c-0.3-0.3-0.5-0.5-0.8-0.8c-0.1-0.1-0.2-0.2-0.3-0.2c-0.1-0.1-0.1-0.1-0.2-0.1
	s0,0,0,0.1c0,0.1,0.1,0.2,0.1,0.3c0.1,0.1,0.2,0.2,0.3,0.4c0,0.1,0.1,0.2,0.2,0.2c0.1,0.1,0.1,0.2,0.2,0.2c0.1,0.2,0.3,0.3,0.3,0.4
	c0,0.1,0.1,0.1,0.2,0.2c0,0.1,0.1,0.1,0.2,0.2c0.1,0.1,0.2,0.2,0.3,0.3c0,0.1,0.1,0.1,0.2,0.2c0.1,0.1,0.1,0.1,0.2,0.2
	c0.1,0.1,0.1,0.1,0.2,0.2c0.1,0,0.2,0.1,0.2,0.2c0.1,0.1,0.2,0.1,0.2,0.2c0.1,0.1,0.2,0.1,0.2,0.2c0.2,0.1,0.3,0.2,0.5,0.3
	c0.2,0.1,0.3,0.2,0.5,0.3c0.1,0,0.2,0.1,0.3,0.2c0.1,0,0.2,0.1,0.3,0.2c-0.1-0.1-0.3-0.2-0.4-0.3c-0.1-0.1-0.3-0.2-0.4-0.3
	c0.2,0.1,0.4,0.3,0.6,0.4c0.1,0.1,0.2,0.1,0.3,0.2c0.1,0.1,0.2,0.1,0.3,0.2c0,0-0.1-0.1-0.2-0.1c0.7,0.4,1.6,0.8,2.5,1
	c0.2,0,0.4,0.1,0.7,0.1c0.2,0,0.4,0,0.6,0.1c0.2,0,0.4,0,0.5,0c0.1,0,0.2,0,0.2,0c0,0,0.1,0,0.1,0s0.1,0,0.1,0
	c0.6,0,0.7-0.2,0.6-0.3c-0.1-0.1-0.2-0.1-0.5-0.2c-0.1,0-0.1,0-0.2,0c-0.1,0-0.2,0-0.2-0.1c-0.2,0-0.3-0.1-0.5-0.1
	C29.6,47,29.4,47,29.2,46.9z"/>
<path fill="#1DD8A3" d="M26.7,45.4c0.8,0.4,1.6,0.8,2.4,1l0.2,0.1l0-0.2c-0.1,0-0.2,0-0.3,0c-0.1,0-0.1,0-0.2,0c-0.1,0-0.1,0-0.2,0
	c-0.1,0-0.3,0-0.4-0.1c-0.1,0-0.2,0-0.2,0c-0.1,0-0.2,0-0.2,0c-0.3-0.1-0.6-0.2-0.9-0.3c-0.2,0-0.3-0.1-0.4-0.2
	c-0.1,0-0.2-0.1-0.2-0.1c-0.1,0-0.2-0.1-0.2-0.1c-0.1-0.1-0.3-0.1-0.4-0.2c-0.2-0.1-0.3-0.1-0.4-0.1c-0.1,0,0,0.1,0.1,0.2
	c0.1,0,0.2,0.1,0.2,0.2c0.1,0.1,0.2,0.1,0.3,0.2c0.2,0.1,0.4,0.2,0.6,0.3c0.2,0.1,0.4,0.2,0.6,0.3c0.2,0.1,0.4,0.2,0.7,0.3
	c0.1,0,0.1,0,0.2,0.1c0.1,0,0.1,0,0.2,0c0.1,0,0.2,0.1,0.3,0.1c0.1,0,0.2,0.1,0.3,0.1c0.1,0,0.2,0,0.3,0.1c0.2,0,0.5,0.1,0.7,0.1
	c0.2,0,0.4,0,0.7,0c0.2,0,0.4,0,0.5,0c0.1,0,0.2,0,0.2,0c0.1,0,0.1,0,0.2,0c0.2,0,0-0.2,0-0.2c0,0,0,0-0.1-0.1c-0.1,0-0.2,0-0.3-0.1
	c-0.1,0-0.3,0-0.4-0.1c-0.2,0-0.3-0.1-0.5-0.1c-0.8-0.1-1.5-0.2-1.5-0.1c-0.1,0-0.3-0.1-0.4-0.1c0.1,0,0.2,0,0.3,0
	c-0.1,0-0.2,0-0.3,0c-0.1,0-0.2,0-0.4-0.1c-0.2,0-0.3-0.1-0.4-0.1c0,0-0.1,0-0.1,0s-0.1,0-0.1,0c-0.1,0-0.2,0-0.2-0.1l-0.2-0.1
	c-0.1,0-0.1,0-0.2-0.1l-0.4-0.2c0.1,0.2,0.2,0.3,0.3,0.4c0.2,0,0.3,0.1,0.4,0.1c0,0-0.1-0.1-0.1,0c0.8,0.2,1.5,0.4,2.4,0.5
	c0.2,0,0.4,0,0.6,0l0.6,0c0.1,0,0.1,0,0.2,0c0,0,0,0,0,0c0,0-0.1-0.1-0.3-0.1l-0.5-0.1c0.1,0,0.2,0,0.2,0.1c-1.1-0.2-2.2-0.5-3.2-1
	C26.9,45.5,26.7,45.4,26.7,45.4C26.5,45.3,26.5,45.4,26.7,45.4z"/>
<path fill="#1DD8A3" d="M30.5,46.5c0.2,0,0.3,0.1,0.6,0.1c0.1,0,0.1,0,0.1,0c-0.1,0-0.2,0-0.3-0.1C30.6,46.5,30.5,46.5,30.5,46.5z"
	/>
<path fill="#1DD8A3" d="M31.2,46.5c0,0,0.1,0,0.1,0c0,0,0,0,0,0C31.3,46.6,31.3,46.6,31.2,46.5L31.2,46.5z"/>
<path fill="#1DD8A3" d="M40.2,22.7c1.4,1.1,2.6,2.5,3.5,4c0.9,1.5,1.4,3.3,1.6,5.1c0,0.1,0,0.2,0,0.2s0-0.1,0-0.2
	c-0.2-1.8-0.7-3.5-1.6-5.1C42.8,25.2,41.7,23.8,40.2,22.7c0-0.1-0.2-0.1-0.2-0.1S40.1,22.6,40.2,22.7z"/>
<path fill="#1DD8A3" d="M37.8,44C37.9,44,37.9,44,37.8,44c-0.1,0-0.2,0-0.3,0.1c0,0,0,0,0,0C37.7,44.1,37.8,44.1,37.8,44z"/>
<path fill="#1DD8A3" d="M37.8,42.7c0.1-0.1,0.2-0.1,0.2-0.2c0.1-0.1,0.2-0.1,0.2-0.2c0.1-0.1,0.2-0.1,0.2-0.2
	c0.1-0.1,0.1-0.1,0.2-0.2c0,0,0.1-0.1,0.2-0.1c0,0,0-0.1,0.1-0.2c1-1,1.9-2.2,2.5-3.5c0.3-0.7,0.5-1.4,0.7-2.1
	c0.2-0.7,0.2-1.5,0.2-2.2c0,0,0-0.1,0-0.1c0-0.2-0.1-0.6-0.1-1v-0.3c-0.1-1.3-0.4-2.5-1-3.7c0,0-0.1-0.1-0.1-0.2
	c0-0.1-0.1-0.1-0.1-0.2c-0.1-0.1-0.2-0.3-0.2-0.4c-0.3-0.5-0.7-0.8-1-1.3c-0.4-0.4-0.8-0.8-1.2-1.1c0,0.1,0.1,0.1,0,0.1
	c0,0-0.1,0-0.2-0.1c-0.1,0-0.2-0.1-0.3-0.2c-0.1-0.1-0.2-0.2-0.3-0.3l0.3,0.2l0.2,0.2c0,0,0.1,0.1,0.1,0.1l0.1,0.1l0.2,0.2
	c0,0,0.1,0.1,0.1,0.1c0.3,0.3,0.7,0.7,1,1c0.1,0.1,0.2,0.2,0.2,0.3c0.1,0.1,0.2,0.2,0.2,0.3c0.2,0.2,0.3,0.4,0.4,0.7
	c0.3,0.4,0.5,0.9,0.7,1.3c0.4,0.9,0.7,1.9,0.7,2.9c0,0.1,0,0.1,0,0.2v0.2v0.2c0,0.1,0,0.1,0,0.2c0,0.1,0,0.3,0,0.4
	c0,0.1,0,0.1,0,0.2v0.2v0.2c0,0.1,0,0.1,0,0.2c0,0.1,0,0.2,0,0.4c0,0.2-0.1,0.5-0.1,0.7c0,0.2-0.1,0.5-0.2,0.7
	c-0.1,0.2-0.1,0.5-0.2,0.7c-0.1,0.2-0.2,0.5-0.3,0.7c-0.1,0.2-0.2,0.5-0.3,0.7c0,0.1-0.1,0.2-0.1,0.2c0,0,0,0,0,0
	c0.1-0.2,0.1-0.3,0.2-0.4c0-0.2,0.1-0.3,0.2-0.4c0-0.2,0.1-0.3,0.2-0.4c0-0.2,0.1-0.3,0.1-0.4c0.2-0.6,0.2-1.2,0.3-1.8
	c0.1-1.2,0-2.4-0.3-3.7c0-0.1,0-0.2-0.1-0.3c0-0.1,0-0.2-0.1-0.3l-0.1-0.3l0-0.2l0-0.2L41,30.3c0-0.1-0.1-0.2-0.1-0.3
	c-0.1-0.2-0.2-0.3-0.3-0.5l0-0.1l0-0.1l-0.1-0.1c0-0.1-0.1-0.2-0.2-0.2c-0.1-0.2-0.2-0.3-0.3-0.5l-0.2-0.2L39.6,28l-0.1-0.1
	l-0.1-0.1l-0.2-0.2c-0.3-0.3-0.5-0.5-0.8-0.8c-0.2-0.1-0.3-0.2-0.5-0.3c-0.1-0.1-0.2-0.1-0.2-0.2c-0.1,0-0.2-0.1-0.2-0.2
	c-0.2-0.1-0.3-0.2-0.5-0.3c-0.1,0-0.2-0.1-0.2-0.2l-0.3-0.1c0,0-0.1,0-0.1-0.1l-0.1-0.1L36,25.3l-0.3-0.1l-0.1,0l-0.2,0
	c-0.1,0-0.2-0.1-0.3-0.1c-0.1,0-0.2-0.1-0.3-0.1l-0.2,0l-0.2,0c-0.1,0-0.2,0-0.3-0.1c-0.1,0-0.2,0-0.3-0.1l-0.2,0c0,0-0.1,0-0.2,0
	c-0.1,0-0.2,0-0.3,0c-0.1,0-0.2,0-0.3,0c-0.2,0-0.4,0-0.6,0h-0.1h-0.1h-0.2c-0.1,0-0.2,0-0.3,0h-0.3c0,0-0.1,0-0.2,0h-0.2l-0.3,0
	c-0.1,0-0.2,0-0.3,0c-1.5,0.2-3,0.9-4.2,1.9c-0.8,0.7-1.5,1.5-2.1,2.4c-0.5,0.9-0.9,1.9-1.1,2.9c-0.1,0.5-0.2,1-0.2,1.5
	c0,0.5,0,1,0.1,1.5c0.2,1,0.5,2,1,2.9c0,0.1,0.1,0.2,0.2,0.2c0,0,0,0.1,0.1,0.1c0,0,0,0.1,0.1,0.1c0.1,0.2,0.2,0.3,0.3,0.5l0,0l0,0
	c0,0,0,0.1,0.1,0.1c0,0.1,0.1,0.2,0.2,0.2c0,0.1,0.1,0.1,0.2,0.2c0,0.1,0.1,0.1,0.1,0.2c0.1,0.1,0.2,0.2,0.2,0.3
	c0.1,0.1,0.1,0.2,0.2,0.3c0.1,0.2,0.2,0.3,0.2,0.4c0,0.1-0.1,0.2-0.3,0.1c0,0-0.1,0-0.2,0c0,0-0.1,0-0.2-0.1
	c-0.1-0.1-0.3-0.2-0.4-0.3c0.1,0.1,0.2,0.2,0.3,0.3l0.1,0.1c0,0,0.1,0.1,0.1,0.1l0.2,0.2c0.5,0.4,0.9,0.8,1.1,1l0.2,0.2l0.1,0.1
	l0.1,0.1c0.1,0.1,0.3,0.3,0.4,0.4c0.1,0.1,0.2,0.2,0.2,0.2c0.1,0.1,0.2,0.1,0.3,0.2c0.3,0.3,0.7,0.5,1,0.7l-0.2,0l0.1,0.1
	c0.4,0.2,0.7,0.3,0.8,0.4l-0.1,0.1c-0.1,0.1-0.4,0.2-0.8,0.2c0,0,0,0.1-0.2,0.1c0,0,0.1,0,0.1,0.1c0,0,0.1,0,0.1,0.1
	c0,0,0.1,0.1,0.1,0.1c0,0.1,0,0.1-0.2,0.2c0.2,0.1,0.2,0.1-0.1,0.1c-0.1,0-0.2,0-0.3-0.1c0.1,0.1,0.1,0.1,0.3,0.2
	c0.2,0,0.3,0.1,0.3,0.1c0.3,0.1,0.4,0.1,0.5,0.1c0.1,0,0.1,0,0.2,0c0,0,0.1,0,0.1,0c0,0,0.1,0,0.2,0c0.2,0,0.3,0.1,0.5,0.1
	c0.1,0,0.2,0,0.2,0c0.5,0.2,0.5,0.2,0.4,0.3c0,0-0.1,0-0.1,0c0,0,0.1,0,0.1,0c0,0,0.1,0,0.1,0c0,0,0.1,0,0.1,0c0.1,0,0.1,0,0.2,0
	c0.1,0,0.2,0,0.2,0c0,0,0,0,0.1,0.1c0,0,0,0,0,0c-0.2,0-0.2,0-0.2,0.1c0,0-0.1,0-0.1,0c-0.3,0-0.3,0-0.4,0c-0.5-0.2-0.5-0.2-0.5-0.2
	c-0.1,0-0.1,0-0.1,0l-0.1-0.1l0.1,0.1l-0.3-0.1l0.3,0.1c-0.3,0-0.5-0.1-0.6-0.1c-0.1,0-0.2,0-0.3,0c-0.1,0-0.3,0-0.3-0.1
	c-0.1,0-0.2,0-0.2,0c0,0,0,0,0,0c-0.2,0-0.3-0.1-0.4-0.1c-0.1,0-0.2,0-0.3-0.1c-0.1,0-0.2,0-0.3-0.1c0,0-0.1,0-0.2,0
	c-0.1,0-0.1,0-0.2-0.1c0,0-0.1,0-0.2-0.1c0,0-0.1,0-0.2,0c0,0-0.1,0-0.2-0.1c-0.1,0-0.2-0.1-0.3-0.2c0,0,0,0-0.1,0
	c-0.1,0-0.2-0.1-0.3-0.1c0,0-0.1,0-0.1,0c-0.1,0-0.2-0.1-0.4-0.2c-0.1,0-0.2-0.1-0.3-0.2c-0.1,0-0.2,0-0.2-0.1
	c-0.1,0-0.2-0.1-0.2-0.1c-0.1,0-0.2-0.1-0.3-0.2c-0.1,0-0.2-0.1-0.2-0.2c0,0,0.1,0.1,0.1,0.1c0.1,0.1,0,0.1,0,0.1
	c0.6,0.4,1.3,0.8,2,1.1c0.7,0.3,1.5,0.6,2.3,0.7c0.2,0,0.3,0,0.4,0.1c0.1,0,0.2,0,0.2,0.1c0,0,0,0-0.1,0c-0.1,0-0.2,0-0.3,0
	c-0.8-0.1-1.7-0.3-2.6-0.6c-0.8-0.3-1.7-0.7-2.5-1.2c-0.8-0.5-1.5-1.1-2.2-1.8c-0.7-0.7-1.2-1.4-1.6-2.1c-0.5-0.8-0.9-1.6-1.2-2.4
	c0,0,0,0.1,0,0.1c-0.1-0.2-0.2-0.5-0.2-0.7c0,0,0,0,0-0.1c0,0.2,0.1,0.3,0.1,0.5c0,0.1,0,0.1,0,0.2c0,0.1,0,0.1,0.1,0.2
	c0.4,1,0.9,1.8,1.5,2.7c0.6,0.8,1.2,1.6,2,2.3c0.8,0.8,1.6,1.4,2.5,1.9c0.2,0.1,0.4,0.2,0.3,0.3c0,0-0.3-0.1-0.5-0.2
	c-0.8-0.4-1.6-0.9-2.3-1.5c-0.7-0.6-1.4-1.3-1.9-2c-0.6-0.7-1-1.5-1.4-2.2c-0.3-0.8-0.6-1.5-0.8-2.2c-0.1-0.3-0.2-0.6-0.3-0.9
	c0-0.1,0-0.2,0-0.2s0-0.2,0-0.2c0-0.2,0-0.3,0-0.4c0,0,0,0,0,0c0,0.1,0,0.1,0,0.2c0,0.1,0,0.1,0,0.2c0-0.1,0-0.2,0-0.3
	c0-0.1,0-0.2,0-0.3c0-0.1,0-0.2,0-0.3c0-0.1,0-0.2,0-0.3c0,0,0,0.1-0.1,0.2c0-0.2,0-0.3,0-0.5c0-0.1,0-0.2,0-0.2c0-0.1,0-0.2,0-0.2
	c0-0.2,0-0.3,0-0.5c0-0.2,0-0.3,0-0.5c0-0.3,0-0.6,0-0.9c0-0.1,0-0.2,0-0.2l0-0.2c0-0.2,0-0.3,0-0.5c0.2-1.2,0.5-2.3,0.9-3.4
	c0-0.1,0.1-0.2,0.1-0.2c0.2-0.5,0.3-0.9,0.5-1.3c0-0.1,0.1-0.2,0.2-0.3c0.1-0.1,0.1-0.2,0.2-0.3c0.1-0.1,0.1-0.2,0.2-0.3
	c0.1-0.1,0.2-0.2,0.2-0.3c-0.1,0.1-0.1,0.2-0.2,0.2c0,0.1-0.1,0.2-0.2,0.2c0,0.1-0.1,0.2-0.2,0.2c0,0.1-0.1,0.2-0.2,0.2
	c0.4-0.7,0.8-1.4,1.4-2.1c0.1-0.1,0.2-0.2,0.3-0.3c0.1-0.1,0.2-0.2,0.3-0.3c0.2-0.2,0.4-0.4,0.7-0.6c0.1-0.1,0.2-0.2,0.3-0.3
	c0.1,0,0.1-0.1,0.2-0.2c0.1,0,0.1-0.1,0.2-0.1c0.1-0.1,0.2-0.2,0.3-0.2c0.1-0.1,0.2-0.2,0.3-0.2c0.5-0.3,0.9-0.5,1.3-0.7
	c0.2-0.1,0.4-0.2,0.6-0.2c0.1,0,0.2,0,0.3-0.1c0.1,0,0.2,0,0.2-0.1c1-0.5,2.1-0.8,3.2-1s2.2-0.2,3.4-0.2c0.5,0,1.1,0.1,1.7,0.2
	c0.5,0.1,1.1,0.2,1.6,0.4c0.5,0.2,1,0.4,1.6,0.6l0.4,0.2l0.2,0.1l0.2,0.1l0.4,0.2l0.3,0.2c0.2,0.1,0.3,0.3,0.4,0.3c0,0,0,0-0.1,0
	c-0.1,0-0.2-0.1-0.2-0.2c-1.3-0.8-2.9-1.5-4.4-1.8c-0.8-0.2-1.6-0.3-2.4-0.3c-0.8,0-1.6,0-2.4,0.2c0.7-0.1,1.3-0.1,2-0.1
	c0.7,0,1.3,0.1,2,0.2c0.7,0.1,1.3,0.3,2,0.5l0.2,0.1l0.1,0l0.1,0c0.2,0.1,0.3,0.1,0.5,0.2c0.3,0.2,0.6,0.3,0.9,0.4
	c0.1,0,0.2,0.1,0.2,0.1s0.2,0.1,0.2,0.1l0.2,0.1l0.1,0.1l0.1,0.1c0.2,0.1,0.3,0.2,0.4,0.3c0.2,0.1,0.3,0.2,0.4,0.3
	c1.4,1,2.5,2.3,3.5,3.7c0.9,1.5,1.5,3.1,1.8,4.8c0.3,1.5,0.3,2.9,0,4.4c0,0.3-0.1,0.7-0.2,1c0,0.2-0.1,0.3-0.1,0.5
	c0,0.1,0,0.2-0.1,0.3c0,0.1,0,0.2-0.1,0.3c-0.2,0.7-0.5,1.4-0.8,2.1c-0.5,1-1.1,1.8-1.8,2.6c-0.7,0.8-1.5,1.5-2.3,2.1l-0.1,0.1
	l-0.1,0l-0.2,0.1c-0.1,0.1-0.2,0.2-0.3,0.2l-0.3,0.2c-0.1,0.1-0.2,0.2-0.3,0.2c-0.2,0.1-0.5,0.2-0.7,0.3c-0.1,0-0.2,0.1-0.3,0.2
	L37.1,46c-0.5,0.2-1,0.3-1.5,0.5c-0.1,0-0.3,0.1-0.4,0.1l-0.2,0l-0.1,0h-0.1c-0.1,0-0.3,0-0.4,0.1c-0.1,0-0.1,0-0.2,0l-0.2,0
	c-0.2,0-0.3,0-0.4,0c-0.1,0-0.3,0-0.3,0c-0.2,0-0.3,0-0.4-0.1c0,0,0-0.1,0.2-0.1c0.1,0,0.2,0,0.3,0c0.1,0,0.1,0,0.2,0
	c0.1,0,0.1,0,0.2,0c1.1-0.2,2.2-0.5,3.2-0.9c1-0.4,2-1,2.9-1.6c0.1-0.1,0.2-0.2,0.3-0.2l0.3-0.3l0.2-0.1l0.2-0.2l0.3-0.3
	c0.4-0.4,0.8-0.8,1.1-1.2c0.2-0.2,0.3-0.4,0.5-0.7c0,0,0.1-0.1,0.1-0.2l0.1-0.2l0.1-0.2c0,0,0.1-0.1,0.1-0.2
	c0.2-0.2,0.3-0.5,0.4-0.7c0.1-0.1,0.1-0.2,0.2-0.3l0.2-0.4c0-0.1,0.1-0.1,0.1-0.2l0.1-0.2l0.2-0.4l0.2-0.4l0.1-0.2
	c0-0.1,0-0.1,0.1-0.2l0.1-0.4c0-0.1,0.1-0.3,0.1-0.4l0-0.2l0-0.1l0-0.1L45,36c0-0.1,0-0.3,0.1-0.4c0-0.1,0-0.3,0.1-0.4l0-0.4l0-0.2
	v-0.2l0-0.4c0-0.2,0-0.3,0-0.4v-0.2c0-0.1,0-0.2,0-0.2v-0.4c0-0.1,0-0.2,0-0.2v-0.2l0-0.4l0-0.4c0-0.2,0-0.3-0.1-0.4
	c0-0.2,0-0.3-0.1-0.4c0-0.2-0.1-0.3-0.1-0.4l0-0.2l0-0.1l0-0.1c0-0.1-0.1-0.3-0.1-0.4c0-0.1-0.1-0.3-0.1-0.4c0-0.1-0.1-0.3-0.2-0.4
	c-0.1-0.3-0.2-0.5-0.3-0.8c-0.2-0.5-0.5-1-0.8-1.5c-0.5-0.8-1.1-1.6-1.7-2.3v0c0,0-0.1,0-0.2-0.1c0.4,0.4,0.7,0.8,1,1.2
	c0.2,0.2,0.3,0.4,0.5,0.7c0,0,0.1,0.1,0.1,0.2l0.1,0.2l0.1,0.2c0,0,0.1,0.1,0.1,0.2c0.4,0.6,0.7,1.3,1,2c0.3,0.7,0.5,1.4,0.7,2.2
	c0.3,1.5,0.3,3.1,0,4.7C45,36,44.9,36.5,44.7,37c-0.2,0.5-0.4,1-0.6,1.4c-0.2,0.5-0.5,0.9-0.8,1.3c-0.1,0.1-0.2,0.2-0.2,0.3
	c-0.1,0.1-0.2,0.2-0.2,0.3c-0.2,0.2-0.3,0.4-0.5,0.6l-0.2,0.2l-0.1,0.1l-0.1,0.1l-0.3,0.4c-0.2,0.2-0.4,0.5-0.7,0.7L41,42.5
	c0,0-0.1,0.1-0.2,0.2c-0.1,0.1-0.2,0.2-0.3,0.3l-0.4,0.3c-0.1,0-0.1,0.1-0.2,0.2l-0.2,0.2c-1,0.8-2.2,1.3-3.4,1.8
	c-0.1,0-0.2,0.1-0.2,0c0,0,0,0,0.1-0.1c1.7-0.6,3.3-1.6,4.6-2.8c-0.2,0.2-0.4,0.2-0.4,0.2c0-0.1,0.1-0.3,0.3-0.5
	c-0.2,0.1-0.3,0.3-0.5,0.4c-0.2,0.1-0.3,0.2-0.5,0.4c-0.2,0.2-0.4,0.2-0.4,0.2c0,0,0.1-0.2,0.3-0.3c1.3-1,2.4-2.2,3.2-3.6
	c0.5-0.8,0.8-1.7,1.1-2.7s0.4-1.9,0.5-2.9c-0.1,0.3-0.1,0.5-0.2,0.5c0,0.3-0.1,0.6-0.1,0.9c-0.1,0.7-0.2,1.3-0.5,2
	c-0.2,0.7-0.5,1.3-0.8,1.9c-0.3,0.6-0.7,1.2-1.1,1.7c-0.4,0.5-0.9,1-1.4,1.5c-1,0.9-2.2,1.7-3.6,2.2c-0.7,0.3-1.3,0.5-2,0.6
	c-0.2,0-0.3,0.1-0.5,0.1l-0.5,0.1c-0.2,0-0.3,0-0.5,0c-0.1,0-0.2,0-0.3,0h-0.3c-0.1,0-0.2,0-0.2,0c0,0,0.1,0,0.2,0
	c1.7,0,3.4-0.4,4.9-1.1c-0.1,0-0.1,0,0,0c0,0,0.2-0.1,0.2-0.1c0.1,0,0.1,0,0,0c1.4-0.7,2.7-1.7,3.7-2.9c1-1.2,1.8-2.5,2.2-4
	c-0.5,1.3-1.2,2.6-2.1,3.7c-0.9,1.1-2,2-3.2,2.7l-0.2,0.1c-0.1,0-0.1,0.1-0.2,0.1c-0.1,0-0.1,0.1-0.2,0.1c-0.1,0-0.1,0.1-0.2,0.1
	c-0.1,0-0.2,0.1-0.2,0.1c0,0,0,0,0.1-0.1c0.1,0,0.2-0.1,0.2-0.1c-0.1,0-0.1,0-0.2,0.1c0,0-0.1,0-0.2,0.1c-0.1,0-0.2,0.1-0.3,0.1
	c-0.2,0-0.3,0-0.3,0c0,0,0.1-0.1,0.3-0.2c0.1,0,0.2-0.1,0.3-0.2c0,0,0.1,0,0.2-0.1c0,0,0.1-0.1,0.2-0.1c1.3-0.7,2.5-1.5,3.4-2.6
	l0.3-0.3c0.1-0.1,0.2-0.3,0.3-0.4c-0.7,0.9-1.5,1.7-2.4,2.3c-0.9,0.7-1.9,1.2-2.9,1.5c-0.2,0.1-0.3,0.1-0.3,0.1c0,0,0.1-0.1,0.3-0.2
	c0.1,0,0.2-0.1,0.3-0.2c0.1,0,0.2-0.1,0.3-0.2l0.3-0.2c0,0,0.1,0,0.2-0.1l0.2-0.1l0.3-0.2l0.3-0.2l0.2-0.1l0.2-0.1l0.3-0.2l0.3-0.2
	l0.2-0.1c0,0,0.1-0.1,0.2-0.1l0.3-0.2l0.3-0.2l0.1-0.1c0,0,0.1-0.1,0.1-0.1l0.3-0.3c0.1-0.1,0.2-0.2,0.2-0.3l0.1-0.1
	c0,0,0.1-0.1,0.1-0.2l0.2-0.3c0.1-0.1,0.2-0.2,0.2-0.3l0.1-0.2c0,0,0.1-0.1,0.1-0.2l0.2-0.3c0.1-0.1,0.1-0.2,0.2-0.3l0.1-0.2
	c0,0,0.1-0.1,0.1-0.2l0.2-0.3c0-0.1,0.1-0.2,0.2-0.3c0.4-0.8,0.7-1.8,0.9-2.7c0.2-1.2,0.1-2.5-0.2-3.7c0,0.2,0,0.3,0,0.5
	c0,0.1,0,0.2,0,0.4c0,0.1,0,0.2,0,0.4c0,0.1,0,0.1,0,0.2s0,0.1,0,0.2c0,0.1,0,0.2,0,0.3c0,0.1,0,0.2,0,0.3c0,0.1,0,0.1,0,0.2
	c0,0.1,0,0.1,0,0.2c0,0.1,0,0.2,0,0.3c0,0.1,0,0.2,0,0.3l0,0.2c0,0.1,0,0.1,0,0.2c0,0.1,0,0.2-0.1,0.3c0,0.1,0,0.2-0.1,0.3
	c0,0.1,0,0.2-0.1,0.3c0,0.1-0.1,0.2-0.1,0.3c0,0.1-0.1,0.2-0.1,0.3c-0.1,0.2-0.2,0.4-0.2,0.7c-0.2,0.4-0.4,0.8-0.6,1.3
	c-0.1,0.2-0.2,0.4-0.4,0.6c-0.1,0.1-0.2,0.2-0.2,0.3c-0.1,0.1-0.2,0.2-0.2,0.3c-0.1,0.1-0.2,0.2-0.2,0.3c-0.1,0.1-0.2,0.2-0.2,0.3
	c-0.2,0.2-0.3,0.3-0.5,0.5c-0.1,0.1-0.2,0.2-0.3,0.3l-0.2,0.1c0,0-0.1,0.1-0.2,0.1c-0.1,0.1-0.2,0.2-0.3,0.2
	c-0.1,0.1-0.2,0.2-0.3,0.2c-0.1,0.1-0.2,0.1-0.2,0.1c0,0,0,0,0.1-0.1c0.1-0.1,0.2-0.2,0.3-0.2c0.1-0.1,0.2-0.2,0.3-0.2
	c0.2-0.2,0.3-0.3,0.5-0.5c0.3-0.3,0.7-0.7,0.9-1c0.6-0.7,1-1.5,1.4-2.4c0.3-0.7,0.5-1.5,0.7-2.2C43,35,43,34.3,43,33.6
	c0,1.5-0.3,2.9-0.9,4.2c-0.6,1.3-1.4,2.5-2.5,3.5c-0.1,0.1-0.2,0.2-0.3,0.2c0,0,0,0,0,0.1c-0.3,0.3-0.6,0.5-0.9,0.8
	c-0.1,0-0.2,0.1-0.2,0.1C37.7,42.8,37.8,42.8,37.8,42.7z M21.9,40.9C21.9,41,21.9,41,21.9,40.9c0,0-0.1-0.1-0.1-0.2v0
	c0,0,0-0.1,0-0.1c0,0,0-0.1-0.1-0.2c0,0,0,0.1,0.1,0.2C21.8,40.6,21.8,40.8,21.9,40.9z M26,44.1c0,0,0.1,0.1,0.1,0.1l0,0
	C26.1,44.2,26.1,44.1,26,44.1z M32.8,20.4c-1-0.1-1.9,0-2.9,0.1c-0.9,0.1-1.8,0.3-2.8,0.7c0.2-0.1,0.4-0.2,0.7-0.2l0.2,0
	c0,0,0.1,0,0.2,0l0.3-0.1c0.7-0.2,1.4-0.3,2.1-0.3C31.4,20.3,32.1,20.3,32.8,20.4z M24.1,43.8c-0.3-0.3-0.6-0.7-0.8-1
	c-0.1-0.1-0.2-0.2-0.3-0.3c-0.1-0.1-0.2-0.2-0.3-0.3C22,41.5,21.5,40.8,21,40c0,0.1-0.1-0.1-0.2-0.2c0-0.1-0.1-0.2-0.2-0.3
	c0.4,0.8,0.9,1.6,1.5,2.4c0.1,0.1,0.2,0.2,0.2,0.3c0.1,0.1,0.2,0.2,0.2,0.2c0.2,0.2,0.3,0.3,0.5,0.5C23.5,43.3,23.8,43.5,24.1,43.8z
	 M30.2,46.2C30.2,46.2,30.2,46.2,30.2,46.2l-0.1,0.1C30.1,46.3,30.1,46.2,30.2,46.2z M30.4,46.1c0,0-0.1,0-0.1,0
	C30.4,46.1,30.4,46.1,30.4,46.1z M29.3,45.8c0.1,0,0.1,0,0.2,0.1C29.3,45.8,29.3,45.8,29.3,45.8z M28.9,43.9c-0.1,0-0.2,0.1-0.2,0.1
	l-0.2,0.1l0.3-0.1L28.9,43.9z"/>
</svg>
