<?xml version="1.0" encoding="utf-8"?>
<!-- Generator: Adobe Illustrator 22.0.0, SVG Export Plug-In . SVG Version: 6.00 Build 0)  -->
<svg version="1.1" id="Layer_1" xmlns="http://www.w3.org/2000/svg" xmlns:xlink="http://www.w3.org/1999/xlink" x="0px" y="0px"
	 viewBox="0 0 218 48" enable-background="new 0 0 218 48" xml:space="preserve">
<path fill="#1DD8A3" d="M84.4,32.9h-3.6l-5.7-10.1l-3.4,4.1v5.9h-3.1V12.5h3.1v10.2L80,12.5h3.8l-6.6,8L84.4,32.9z"/>
<path fill="#1DD8A3" d="M98.5,32.9h-2.9v-1.3c-0.5,0.5-1.1,0.9-1.7,1.2c-0.6,0.2-1.3,0.3-2.2,0.3c-0.9,0-1.6-0.1-2.3-0.3
	c-0.7-0.2-1.2-0.5-1.6-1c-0.8-0.8-1.2-1.8-1.2-3.1c0-0.8,0.2-1.5,0.6-2.2c0.4-0.6,1-1.1,1.7-1.5c0.7-0.3,1.7-0.5,2.7-0.5h3.9v-1
	c0-0.9-0.3-1.6-0.8-2s-1.3-0.7-2.4-0.7c-0.8,0-1.4,0.1-1.9,0.3c-0.5,0.2-0.9,0.6-1.3,1.1l-1.9-1.8c0.7-0.8,1.4-1.3,2.2-1.7
	c0.8-0.3,1.8-0.5,3-0.5c4,0,6,1.7,6,5V32.9z M95.6,27.6v-1.2h-3.4c-0.8,0-1.5,0.2-1.9,0.5c-0.4,0.3-0.7,0.9-0.7,1.5
	c0,1.4,0.9,2,2.7,2c0.6,0,1.2,0,1.6-0.2c0.4-0.1,0.8-0.3,1.2-0.7C95.4,29.4,95.6,28.6,95.6,27.6z"/>
<path fill="#1DD8A3" d="M114.8,32.9h-2.9V24c0-0.7-0.1-1.3-0.4-1.8c-0.3-0.5-0.6-0.8-1-1.1c-0.4-0.2-0.9-0.3-1.5-0.3
	c-0.9,0-1.6,0.3-2.2,0.8c-0.6,0.5-0.8,1.3-0.8,2.4v8.8H103V18.4h2.9v1.5c0.5-0.5,1.1-0.9,1.7-1.2c0.7-0.3,1.4-0.4,2.1-0.4
	c1.5,0,2.7,0.4,3.6,1.3c1,0.9,1.5,2.3,1.5,4.1L114.8,32.9L114.8,32.9z"/>
<path fill="#1DD8A3" d="M130,28.4c0,1-0.3,1.8-0.8,2.5c-0.5,0.7-1.2,1.2-2.1,1.5c-0.9,0.3-2,0.5-3.2,0.5c-0.9,0-1.7-0.1-2.3-0.2
	c-0.7-0.1-1.3-0.3-2-0.6c-0.6-0.3-1.2-0.7-1.8-1.3l1.9-1.9c1,1,2.4,1.5,4.2,1.5c0.6,0,1.2-0.1,1.6-0.2c0.5-0.2,0.9-0.4,1.2-0.7
	c0.3-0.3,0.4-0.7,0.4-1.1c0-1-0.7-1.6-1.9-1.7l-2.3-0.2c-0.9-0.1-1.7-0.3-2.3-0.6c-0.7-0.3-1.1-0.7-1.5-1.3
	c-0.3-0.6-0.5-1.3-0.5-2.1c0-1.4,0.5-2.5,1.5-3.2c1-0.8,2.4-1.2,3.9-1.2c2.4,0,4.1,0.5,5.4,1.6l-1.8,1.8c-0.8-0.7-2-1.1-3.6-1.1
	c-0.8,0-1.5,0.2-2,0.5c-0.5,0.3-0.7,0.8-0.7,1.4c0,1,0.7,1.5,2,1.7l2.3,0.2c0.9,0.1,1.7,0.3,2.3,0.6c0.7,0.3,1.2,0.8,1.5,1.3
	C129.8,26.9,130,27.6,130,28.4z"/>
<path fill="#1DD8A3" d="M144.9,25.6c0,1.3-0.1,2.5-0.3,3.4c-0.2,0.9-0.7,1.7-1.3,2.3c-1.1,1.2-2.5,1.7-4.4,1.7
	c-1.8,0-3.2-0.6-4.3-1.7c-0.7-0.7-1.1-1.5-1.3-2.3c-0.2-0.9-0.4-2-0.4-3.4c0-1.3,0.1-2.4,0.4-3.3c0.3-0.9,0.7-1.7,1.3-2.4
	c0.3-0.3,0.7-0.6,1.1-0.9c0.4-0.3,0.9-0.5,1.5-0.6s1.2-0.2,1.8-0.2c1,0,1.8,0.2,2.5,0.5c0.7,0.3,1.3,0.7,1.8,1.2
	c0.7,0.7,1.1,1.5,1.3,2.3C144.8,23.2,144.9,24.3,144.9,25.6z M142,25.6c0-1-0.1-1.7-0.2-2.4c-0.1-0.7-0.4-1.2-0.8-1.6
	c-0.5-0.5-1.2-0.8-2.1-0.8c-0.8,0-1.6,0.3-2.1,0.8c-0.4,0.4-0.7,0.9-0.8,1.6c-0.1,0.7-0.2,1.4-0.2,2.4c0,0.9,0.1,1.7,0.2,2.4
	c0.1,0.7,0.4,1.2,0.8,1.6c0.6,0.6,1.3,0.8,2.1,0.8c0.8,0,1.6-0.3,2.1-0.8c0.4-0.4,0.7-0.9,0.8-1.6C142,27.4,142,26.5,142,25.6z"/>
<path fill="#FFFFFF" d="M161.6,26.8c-0.2,1-0.5,1.9-0.9,2.7c-0.4,0.8-1,1.5-1.6,2c-0.6,0.5-1.3,0.9-2.2,1.2
	c-0.8,0.3-1.7,0.4-2.6,0.4c-0.7,0-1.4-0.1-2-0.2c-0.6-0.2-1.2-0.4-1.8-0.7c-0.6-0.3-1.1-0.7-1.5-1.2c-0.6-0.7-1.1-1.3-1.4-2.1
	c-0.3-0.7-0.5-1.5-0.5-2.4c-0.1-0.8-0.1-2.1-0.1-3.7c0-1.2,0-2.2,0-3c0-0.7,0.1-1.4,0.2-2c0.1-0.6,0.3-1.2,0.6-1.7
	c0.3-0.5,0.7-1,1.2-1.5c0.7-0.7,1.5-1.2,2.4-1.6c0.9-0.4,1.9-0.5,2.9-0.5c1.9,0,3.5,0.5,4.8,1.6c1.3,1.1,2.1,2.6,2.5,4.7h-3.2
	c-0.2-1.1-0.7-1.9-1.4-2.5c-0.7-0.6-1.6-0.9-2.7-0.9c-0.6,0-1.2,0.1-1.7,0.3c-0.5,0.2-1,0.5-1.3,0.9c-0.3,0.3-0.5,0.6-0.6,0.9
	c-0.2,0.3-0.3,0.7-0.3,1.2c-0.1,0.5-0.2,1-0.2,1.7c0,0.6,0,1.5,0,2.6c0,1.1,0,1.9,0,2.5c0,0.6,0.1,1.2,0.2,1.7
	c0.1,0.5,0.2,0.9,0.3,1.2c0.2,0.3,0.3,0.6,0.6,0.9c0.3,0.4,0.8,0.7,1.3,0.9c0.5,0.2,1.1,0.3,1.7,0.3c0.7,0,1.4-0.2,1.9-0.4
	c0.6-0.3,1-0.7,1.4-1.2c0.4-0.5,0.7-1.2,0.8-1.8h3.1V26.8z"/>
<path fill="#FFFFFF" d="M171,32.9h-1.8c-1.3,0-2.3-0.4-3-1.2c-0.7-0.8-1-1.7-1-2.9V12.5h2.9v16.2c0,0.6,0.1,1,0.3,1.3
	s0.7,0.4,1.2,0.4h1.3V32.9z"/>
<path fill="#FFFFFF" d="M185.6,25.6c0,1.3-0.1,2.5-0.3,3.4c-0.2,0.9-0.7,1.7-1.3,2.3c-1.1,1.2-2.5,1.7-4.4,1.7
	c-1.8,0-3.2-0.6-4.3-1.7c-0.7-0.7-1.1-1.5-1.3-2.3c-0.2-0.9-0.4-2-0.4-3.4c0-1.3,0.1-2.4,0.4-3.3c0.3-0.9,0.7-1.7,1.3-2.4
	c0.3-0.3,0.7-0.6,1.1-0.9s0.9-0.5,1.5-0.6c0.5-0.2,1.2-0.2,1.8-0.2c1,0,1.8,0.2,2.5,0.5c0.7,0.3,1.3,0.7,1.8,1.2
	c0.7,0.7,1.1,1.5,1.3,2.3C185.5,23.2,185.6,24.3,185.6,25.6z M182.7,25.6c0-1-0.1-1.7-0.2-2.4c-0.1-0.7-0.4-1.2-0.8-1.6
	c-0.5-0.5-1.2-0.8-2.1-0.8c-0.8,0-1.6,0.3-2.1,0.8c-0.4,0.4-0.7,0.9-0.8,1.6c-0.1,0.7-0.2,1.4-0.2,2.4c0,0.9,0.1,1.7,0.2,2.4
	c0.1,0.7,0.4,1.2,0.8,1.6c0.6,0.6,1.3,0.8,2.1,0.8s1.6-0.3,2.1-0.8c0.4-0.4,0.7-0.9,0.8-1.6C182.7,27.4,182.7,26.5,182.7,25.6z"/>
<path fill="#FFFFFF" d="M201.2,32.9h-2.9v-1.5c-0.5,0.5-1.1,0.9-1.8,1.2c-0.7,0.3-1.4,0.4-2.1,0.4c-1.5,0-2.7-0.4-3.6-1.3
	c-0.5-0.5-0.9-1.1-1.1-1.8c-0.2-0.7-0.3-1.4-0.3-2.3v-9.2h2.9v8.8c0,1.1,0.3,1.9,0.8,2.4c0.5,0.5,1.2,0.8,2.1,0.8
	c0.9,0,1.6-0.3,2.2-0.8c0.6-0.5,0.8-1.3,0.8-2.4v-8.8h2.9L201.2,32.9L201.2,32.9z"/>
<path fill="#FFFFFF" d="M217,32.9h-2.8v-1.5c-0.3,0.5-0.7,0.8-1.1,1c-0.4,0.2-0.8,0.4-1.2,0.5c-0.4,0.1-0.9,0.2-1.5,0.2
	c-0.7,0-1.4-0.1-2-0.3c-0.6-0.2-1.1-0.5-1.5-0.9c-0.5-0.5-0.8-1-1-1.7c-0.2-0.7-0.4-1.3-0.5-2c-0.1-0.7-0.1-1.5-0.1-2.4
	c0-0.9,0-1.7,0.1-2.4c0.1-0.7,0.2-1.4,0.5-2c0.2-0.7,0.6-1.2,1-1.7c0.4-0.4,0.9-0.7,1.5-1c0.6-0.2,1.3-0.3,2-0.3
	c0.8,0,1.5,0.1,2.1,0.3s1.2,0.7,1.7,1.3v-7.3h2.9V32.9z M214.1,25.6c0-1-0.1-1.8-0.2-2.5c-0.2-0.7-0.5-1.2-0.9-1.7
	c-0.4-0.4-1.1-0.6-1.9-0.6c-0.8,0-1.5,0.2-1.9,0.6c-0.5,0.4-0.7,1-0.9,1.7c-0.2,0.7-0.2,1.5-0.2,2.5c0,1,0.1,1.8,0.2,2.5
	c0.2,0.7,0.5,1.2,0.9,1.7c0.5,0.4,1.1,0.6,1.9,0.6c1.2,0,2-0.4,2.4-1.3C213.9,28.3,214.1,27.1,214.1,25.6z"/>
<path fill="#FFFFFF" d="M47.9,37h-0.2c-0.5,0-1-0.4-1-1s0.4-1,1-1h0.2c5.8,0,10.5-4.7,10.5-10.5c0-5.2-3.7-9.6-8.9-10.4
	c-0.4-0.1-0.7-0.3-0.8-0.7C47.6,9.6,44,6.8,40,6.8c-1.8,0-3.6,0.5-5,1.5c-0.5,0.3-1,0.2-1.3-0.3c-2-2.9-5.2-4.5-8.6-4.5
	c-5.8,0-10.5,4.7-10.5,10.5c0,0.5,0,1.1,0.2,1.7c0,0.3,0,0.6-0.3,0.8c-0.2,0.2-0.5,0.3-0.8,0.3c-0.3,0-0.7-0.1-1-0.1
	c-5,0-9.1,4.1-9.1,9.1s4.1,9.1,9.1,9.1h1.3c0.5,0,1,0.4,1,1s-0.4,1-1,1h-1.3c-6.1,0-11-5-11-11c0-6.1,5-11,11-11c0-0.3,0-0.6,0-0.8
	c0-6.9,5.6-12.4,12.4-12.4c3.8,0,7.3,1.7,9.7,4.6c1.6-0.9,3.5-1.4,5.4-1.4c4.7,0,8.9,3,10.4,7.5c5.8,1.2,9.9,6.2,9.9,12.2
	C60.4,31.4,54.8,37,47.9,37z"/>
<path fill="#FFFFFF" d="M47.9,38.5h-0.2c-1.4,0-2.5-1.1-2.5-2.5c0-1.4,1.1-2.5,2.5-2.5h0.2c4.9,0,9-4,9-9c0-4.4-3.2-8.2-7.6-8.8
	c-1-0.2-1.8-0.8-2-1.8c-0.9-3.2-3.9-5.5-7.2-5.5c-1.5,0-3,0.4-4.2,1.3c-1.2,0.8-2.7,0.5-3.5-0.7c-1.7-2.4-4.4-3.9-7.4-3.9
	c-4.9,0-9,4-9,9c0,0.5,0,0.9,0.2,1.5c0.1,0.8-0.1,1.6-0.7,2.2c-0.5,0.6-1.3,0.8-2.1,0.8c-0.3,0-0.6,0-0.8,0C8.4,18.5,5,21.9,5,26
	s3.4,7.5,7.5,7.5h1.3c1.4,0,2.5,1.1,2.5,2.5c0,1.4-1.1,2.5-2.5,2.5h-1.3C5.6,38.6,0,33,0,26c0-6.4,4.8-11.7,11-12.5
	c0.2-7.5,6.4-13.5,13.9-13.5c3.8,0,7.4,1.5,10.1,4.3c1.6-0.7,3.3-1,5-1c5.1,0,9.6,3.1,11.6,7.7c6.1,1.7,10.3,7.1,10.3,13.5
	C61.9,32.2,55.6,38.5,47.9,38.5z"/>
<path fill="#1DD8A3" d="M28.3,47c-0.1,0-0.2,0-0.2-0.1C28.1,46.9,28.2,46.9,28.3,47c0.2,0,0.3,0,0.4,0c-0.3-0.1-0.7-0.2-1-0.3
	c-0.3-0.1-0.7-0.2-1-0.3c-0.1,0-0.2-0.1-0.3-0.1c-0.1,0-0.2-0.1-0.3-0.1c-0.1,0-0.2-0.1-0.3-0.1l-0.1,0l-0.1,0l-0.5-0.2
	c-0.2-0.1-0.3-0.2-0.5-0.2c-0.7-0.3-1.3-0.7-1.8-1c-0.2-0.1-0.3-0.2-0.4-0.3c0,0-0.1,0-0.1-0.1c0,0-0.1,0-0.1-0.1
	c-0.1,0-0.1-0.1-0.2-0.2c-0.3-0.2-0.5-0.4-0.7-0.5c-0.3-0.3-0.5-0.5-0.8-0.8c-0.1-0.1-0.2-0.2-0.3-0.2c-0.1-0.1-0.1-0.1-0.2-0.1
	c0,0,0,0,0,0.1c0,0.1,0.1,0.2,0.1,0.3c0.1,0.1,0.2,0.2,0.3,0.4c0,0.1,0.1,0.2,0.2,0.2c0.1,0.1,0.1,0.2,0.2,0.2
	c0.1,0.2,0.3,0.3,0.3,0.4c0,0.1,0.1,0.1,0.2,0.2c0,0.1,0.1,0.1,0.2,0.2c0.1,0.1,0.2,0.2,0.3,0.3c0,0.1,0.1,0.1,0.2,0.2
	c0.1,0.1,0.1,0.1,0.2,0.2c0.1,0.1,0.1,0.1,0.2,0.2c0.1,0,0.2,0.1,0.2,0.2c0.1,0.1,0.2,0.1,0.2,0.2c0.1,0.1,0.2,0.1,0.2,0.2
	c0.2,0.1,0.3,0.2,0.5,0.3c0.2,0.1,0.3,0.2,0.5,0.3c0.1,0,0.2,0.1,0.3,0.2c0.1,0,0.2,0.1,0.3,0.2c-0.1-0.1-0.3-0.2-0.4-0.3
	c-0.1-0.1-0.3-0.2-0.4-0.3c0.2,0.1,0.4,0.3,0.6,0.4c0.1,0.1,0.2,0.1,0.3,0.2c0.1,0.1,0.2,0.1,0.3,0.2c0,0-0.1-0.1-0.2-0.1
	c0.7,0.4,1.6,0.8,2.5,1c0.2,0,0.4,0.1,0.7,0.1c0.2,0,0.4,0,0.6,0.1c0.2,0,0.4,0,0.5,0c0.1,0,0.2,0,0.2,0c0,0,0.1,0,0.1,0
	c0,0,0.1,0,0.1,0c0.6,0,0.7-0.2,0.6-0.3c-0.1-0.1-0.2-0.1-0.5-0.2c-0.1,0-0.1,0-0.2,0c-0.1,0-0.2,0-0.2-0.1c-0.2,0-0.3-0.1-0.5-0.1
	C28.7,47.1,28.5,47,28.3,47z"/>
<path fill="#1DD8A3" d="M25.8,45.5c0.8,0.4,1.6,0.8,2.4,1l0.2,0.1l0-0.2c-0.1,0-0.2,0-0.3,0c-0.1,0-0.1,0-0.2,0c-0.1,0-0.1,0-0.2,0
	c-0.1,0-0.3,0-0.4-0.1c-0.1,0-0.2,0-0.2,0c-0.1,0-0.2,0-0.2,0c-0.3-0.1-0.6-0.2-0.9-0.3c-0.2,0-0.3-0.1-0.4-0.2
	c-0.1,0-0.2-0.1-0.2-0.1c-0.1,0-0.2-0.1-0.2-0.1c-0.1-0.1-0.3-0.1-0.4-0.2c-0.2-0.1-0.3-0.1-0.4-0.1c-0.1,0,0,0.1,0.1,0.2
	c0.1,0,0.2,0.1,0.2,0.2c0.1,0.1,0.2,0.1,0.3,0.2c0.2,0.1,0.4,0.2,0.6,0.3c0.2,0.1,0.4,0.2,0.6,0.3c0.2,0.1,0.4,0.2,0.7,0.3
	c0.1,0,0.1,0,0.2,0.1c0.1,0,0.1,0,0.2,0c0.1,0,0.2,0.1,0.3,0.1c0.1,0,0.2,0.1,0.3,0.1c0.1,0,0.2,0,0.3,0.1c0.2,0,0.5,0.1,0.7,0.1
	c0.2,0,0.4,0,0.7,0c0.2,0,0.4,0,0.5,0c0.1,0,0.2,0,0.2,0c0.1,0,0.1,0,0.2,0c0.2,0,0-0.2,0-0.2c0,0,0,0-0.1-0.1c-0.1,0-0.2,0-0.3-0.1
	c-0.1,0-0.3,0-0.4-0.1c-0.2,0-0.3-0.1-0.5-0.1c-0.8-0.1-1.5-0.2-1.5-0.1c-0.1,0-0.3-0.1-0.4-0.1c0.1,0,0.2,0,0.3,0
	c-0.1,0-0.2,0-0.3,0c-0.1,0-0.2,0-0.4-0.1c-0.2,0-0.3-0.1-0.4-0.1c0,0-0.1,0-0.1,0s-0.1,0-0.1,0c-0.1,0-0.2,0-0.2-0.1L26,46
	c-0.1,0-0.1,0-0.2-0.1l-0.4-0.2c0.1,0.2,0.2,0.3,0.3,0.4c0.2,0,0.3,0.1,0.4,0.1c0,0-0.1-0.1-0.1,0c0.8,0.2,1.5,0.4,2.4,0.5
	c0.2,0,0.4,0,0.6,0l0.6,0c0.1,0,0.1,0,0.2,0c0,0,0,0,0,0c0,0-0.1-0.1-0.3-0.1l-0.5-0.1c0.1,0,0.2,0,0.2,0.1c-1.1-0.2-2.2-0.5-3.2-1
	C26,45.6,25.8,45.5,25.8,45.5C25.6,45.4,25.6,45.5,25.8,45.5z"/>
<path fill="#1DD8A3" d="M29.6,46.5c0.2,0,0.3,0.1,0.6,0.1c0.1,0,0.1,0,0.1,0c-0.1,0-0.2,0-0.3-0.1C29.7,46.5,29.6,46.5,29.6,46.5z"
	/>
<path fill="#1DD8A3" d="M30.3,46.6c0,0,0.1,0,0.1,0c0,0,0,0,0,0C30.4,46.6,30.4,46.6,30.3,46.6L30.3,46.6z"/>
<path fill="#1DD8A3" d="M39.3,22.8c1.4,1.1,2.6,2.5,3.5,4c0.9,1.5,1.4,3.3,1.6,5.1c0,0.1,0,0.2,0,0.2s0-0.1,0-0.2
	c-0.2-1.8-0.7-3.5-1.6-5.1C41.9,25.3,40.8,23.9,39.3,22.8c0-0.1-0.2-0.1-0.2-0.1S39.2,22.7,39.3,22.8z"/>
<path fill="#1DD8A3" d="M36.9,44.1C37,44.1,37,44.1,36.9,44.1c-0.1,0-0.2,0-0.3,0.1c0,0,0,0,0,0C36.8,44.2,36.9,44.2,36.9,44.1z"/>
<path fill="#1DD8A3" d="M36.9,42.8c0.1-0.1,0.2-0.1,0.2-0.2c0.1-0.1,0.2-0.1,0.2-0.2c0.1-0.1,0.2-0.1,0.2-0.2
	c0.1-0.1,0.1-0.1,0.2-0.2c0,0,0.1-0.1,0.2-0.1c0,0,0-0.1,0.1-0.2c1-1,1.9-2.2,2.5-3.5c0.3-0.7,0.5-1.4,0.7-2.1
	c0.2-0.7,0.2-1.5,0.2-2.2c0,0,0-0.1,0-0.1c0-0.2-0.1-0.6-0.1-1v-0.3c-0.1-1.3-0.4-2.5-1-3.7c0,0-0.1-0.1-0.1-0.2
	c0-0.1-0.1-0.1-0.1-0.2c-0.1-0.1-0.2-0.3-0.2-0.4c-0.3-0.5-0.7-0.8-1-1.3c-0.4-0.4-0.8-0.8-1.2-1.1c0,0.1,0.1,0.1,0,0.1
	c0,0-0.1,0-0.2-0.1c-0.1,0-0.2-0.1-0.3-0.2c-0.1-0.1-0.2-0.2-0.3-0.3l0.3,0.2l0.2,0.2c0,0,0.1,0.1,0.1,0.1l0.1,0.1l0.2,0.2
	c0,0,0.1,0.1,0.1,0.1c0.3,0.3,0.7,0.7,1,1c0.1,0.1,0.2,0.2,0.2,0.3c0.1,0.1,0.2,0.2,0.2,0.3c0.2,0.2,0.3,0.4,0.4,0.7
	c0.3,0.4,0.5,0.9,0.7,1.3c0.4,0.9,0.7,1.9,0.7,2.9c0,0.1,0,0.1,0,0.2v0.2v0.2c0,0.1,0,0.1,0,0.2c0,0.1,0,0.3,0,0.4
	c0,0.1,0,0.1,0,0.2v0.2v0.2c0,0.1,0,0.1,0,0.2c0,0.1,0,0.2,0,0.4c0,0.2-0.1,0.5-0.1,0.7c0,0.2-0.1,0.5-0.2,0.7
	c-0.1,0.2-0.1,0.5-0.2,0.7c-0.1,0.2-0.2,0.5-0.3,0.7c-0.1,0.2-0.2,0.5-0.3,0.7c0,0.1-0.1,0.2-0.1,0.2c0,0,0,0,0,0
	c0.1-0.2,0.1-0.3,0.2-0.4c0-0.2,0.1-0.3,0.2-0.4c0-0.2,0.1-0.3,0.2-0.4c0-0.2,0.1-0.3,0.1-0.4c0.2-0.6,0.2-1.2,0.3-1.8
	c0.1-1.2,0-2.4-0.3-3.7c0-0.1,0-0.2-0.1-0.3c0-0.1,0-0.2-0.1-0.3l-0.1-0.3l0-0.2l0-0.2l-0.1-0.3c0-0.1-0.1-0.2-0.1-0.3
	c-0.1-0.2-0.2-0.3-0.3-0.5l0-0.1l0-0.1l-0.1-0.1c0-0.1-0.1-0.2-0.2-0.2c-0.1-0.2-0.2-0.3-0.3-0.5l-0.2-0.2l-0.2-0.2L38.7,28
	l-0.1-0.1l-0.2-0.2c-0.3-0.3-0.5-0.5-0.8-0.8c-0.2-0.1-0.3-0.2-0.5-0.3c-0.1-0.1-0.2-0.1-0.2-0.2c-0.1,0-0.2-0.1-0.2-0.2
	c-0.2-0.1-0.3-0.2-0.5-0.3c-0.1,0-0.2-0.1-0.2-0.2l-0.3-0.1c0,0-0.1,0-0.1-0.1l-0.1-0.1l-0.3-0.1l-0.3-0.1l-0.1,0l-0.2,0
	c-0.1,0-0.2-0.1-0.3-0.1S34.1,25,34,25l-0.2,0l-0.2,0c-0.1,0-0.2,0-0.3-0.1c-0.1,0-0.2,0-0.3-0.1l-0.2,0c0,0-0.1,0-0.2,0
	c-0.1,0-0.2,0-0.3,0c-0.1,0-0.2,0-0.3,0c-0.2,0-0.4,0-0.6,0h-0.1h-0.1h-0.2c-0.1,0-0.2,0-0.3,0h-0.3c0,0-0.1,0-0.2,0h-0.2l-0.3,0
	c-0.1,0-0.2,0-0.3,0c-1.5,0.2-3,0.9-4.2,1.9c-0.8,0.7-1.5,1.5-2.1,2.4c-0.5,0.9-0.9,1.9-1.1,2.9c-0.1,0.5-0.2,1-0.2,1.5
	c0,0.5,0,1,0.1,1.5c0.2,1,0.5,2,1,2.9c0,0.1,0.1,0.2,0.2,0.2c0,0,0,0.1,0.1,0.1c0,0,0,0.1,0.1,0.1c0.1,0.2,0.2,0.3,0.3,0.5l0,0l0,0
	c0,0,0,0.1,0.1,0.1c0,0.1,0.1,0.2,0.2,0.2c0,0.1,0.1,0.1,0.2,0.2c0,0.1,0.1,0.1,0.1,0.2c0.1,0.1,0.2,0.2,0.2,0.3
	c0.1,0.1,0.1,0.2,0.2,0.3c0.1,0.2,0.2,0.3,0.2,0.4c0,0.1-0.1,0.2-0.3,0.1c0,0-0.1,0-0.2,0c0,0-0.1,0-0.2-0.1
	c-0.1-0.1-0.3-0.2-0.4-0.3c0.1,0.1,0.2,0.2,0.3,0.3l0.1,0.1c0,0,0.1,0.1,0.1,0.1L25,41c0.5,0.4,0.9,0.8,1.1,1l0.2,0.2l0.1,0.1
	l0.1,0.1c0.1,0.1,0.3,0.3,0.4,0.4c0.1,0.1,0.2,0.2,0.2,0.2c0.1,0.1,0.2,0.1,0.3,0.2c0.3,0.3,0.7,0.5,1,0.7l-0.2,0l0.1,0.1
	c0.4,0.2,0.7,0.3,0.8,0.4L29,44.5c-0.1,0.1-0.4,0.2-0.8,0.2c0,0,0,0.1-0.2,0.1c0,0,0.1,0,0.1,0.1c0,0,0.1,0,0.1,0.1
	c0,0,0.1,0.1,0.1,0.1c0,0.1,0,0.1-0.2,0.2c0.2,0.1,0.2,0.1-0.1,0.1c-0.1,0-0.2,0-0.3-0.1c0.1,0.1,0.1,0.1,0.3,0.2
	c0.2,0,0.3,0.1,0.3,0.1c0.3,0.1,0.4,0.1,0.5,0.1c0.1,0,0.1,0,0.2,0c0,0,0.1,0,0.1,0c0,0,0.1,0,0.2,0c0.2,0,0.3,0.1,0.5,0.1
	c0.1,0,0.2,0,0.2,0c0.5,0.2,0.5,0.2,0.4,0.3c0,0-0.1,0-0.1,0c0,0,0.1,0,0.1,0s0.1,0,0.1,0s0.1,0,0.1,0c0.1,0,0.1,0,0.2,0
	c0.1,0,0.2,0,0.2,0c0,0,0,0,0.1,0.1c0,0,0,0,0,0c-0.2,0-0.2,0-0.2,0.1c0,0-0.1,0-0.1,0c-0.3,0-0.3,0-0.4,0c-0.5-0.2-0.5-0.2-0.5-0.2
	c-0.1,0-0.1,0-0.1,0l-0.1-0.1l0.1,0.1l-0.3-0.1l0.3,0.1c-0.3,0-0.5-0.1-0.6-0.1c-0.1,0-0.2,0-0.3,0c-0.1,0-0.3,0-0.3-0.1
	c-0.1,0-0.2,0-0.2,0c0,0,0,0,0,0c-0.2,0-0.3-0.1-0.4-0.1c-0.1,0-0.2,0-0.3-0.1c-0.1,0-0.2,0-0.3-0.1c0,0-0.1,0-0.2,0
	c-0.1,0-0.1,0-0.2-0.1c0,0-0.1,0-0.2-0.1c0,0-0.1,0-0.2,0c0,0-0.1,0-0.2-0.1c-0.1,0-0.2-0.1-0.3-0.2c0,0,0,0-0.1,0
	c-0.1,0-0.2-0.1-0.3-0.1c0,0-0.1,0-0.1,0c-0.1,0-0.2-0.1-0.4-0.2c-0.1,0-0.2-0.1-0.3-0.2c-0.1,0-0.2,0-0.2-0.1
	c-0.1,0-0.2-0.1-0.2-0.1c-0.1,0-0.2-0.1-0.3-0.2c-0.1,0-0.2-0.1-0.2-0.2c0,0,0.1,0.1,0.1,0.1c0.1,0.1,0,0.1,0,0.1
	c0.6,0.4,1.3,0.8,2,1.1c0.7,0.3,1.5,0.6,2.3,0.7c0.2,0,0.3,0,0.4,0.1c0.1,0,0.2,0,0.2,0.1c0,0,0,0-0.1,0s-0.2,0-0.3,0
	c-0.8-0.1-1.7-0.3-2.6-0.6c-0.8-0.3-1.7-0.7-2.5-1.2c-0.8-0.5-1.5-1.1-2.2-1.8c-0.7-0.7-1.2-1.4-1.6-2.1c-0.5-0.8-0.9-1.6-1.2-2.4
	c0,0,0,0.1,0,0.1c-0.1-0.2-0.2-0.5-0.2-0.7c0,0,0,0,0-0.1c0,0.2,0.1,0.3,0.1,0.5c0,0.1,0,0.1,0,0.2c0,0.1,0,0.1,0.1,0.2
	c0.4,1,0.9,1.8,1.5,2.7c0.6,0.8,1.2,1.6,2,2.3c0.8,0.8,1.6,1.4,2.5,1.9C24.8,45.9,25,46,25,46c0,0-0.3-0.1-0.5-0.2
	c-0.8-0.4-1.6-0.9-2.3-1.5c-0.7-0.6-1.4-1.3-1.9-2c-0.6-0.7-1-1.5-1.4-2.2c-0.3-0.8-0.6-1.5-0.8-2.2c-0.1-0.3-0.2-0.6-0.3-0.9
	c0-0.1,0-0.2,0-0.2c0-0.1,0-0.2,0-0.2c0-0.2,0-0.3,0-0.4c0,0,0,0,0,0c0,0.1,0,0.1,0,0.2s0,0.1,0,0.2c0-0.1,0-0.2,0-0.3
	c0-0.1,0-0.2,0-0.3c0-0.1,0-0.2,0-0.3c0-0.1,0-0.2,0-0.3c0,0,0,0.1-0.1,0.2c0-0.2,0-0.3,0-0.5c0-0.1,0-0.2,0-0.2c0-0.1,0-0.2,0-0.2
	c0-0.2,0-0.3,0-0.5c0-0.2,0-0.3,0-0.5c0-0.3,0-0.6,0-0.9c0-0.1,0-0.2,0-0.2l0-0.2c0-0.2,0-0.3,0-0.5c0.2-1.2,0.5-2.3,0.9-3.4
	c0-0.1,0.1-0.2,0.1-0.2c0.2-0.5,0.3-0.9,0.5-1.3c0-0.1,0.1-0.2,0.2-0.3c0.1-0.1,0.1-0.2,0.2-0.3c0.1-0.1,0.1-0.2,0.2-0.3
	c0.1-0.1,0.2-0.2,0.2-0.3c-0.1,0.1-0.1,0.2-0.2,0.2c0,0.1-0.1,0.2-0.2,0.2s-0.1,0.2-0.2,0.2s-0.1,0.2-0.2,0.2
	c0.4-0.7,0.8-1.4,1.4-2.1c0.1-0.1,0.2-0.2,0.3-0.3c0.1-0.1,0.2-0.2,0.3-0.3c0.2-0.2,0.4-0.4,0.7-0.6c0.1-0.1,0.2-0.2,0.3-0.3
	c0.1,0,0.1-0.1,0.2-0.2c0.1,0,0.1-0.1,0.2-0.1c0.1-0.1,0.2-0.2,0.3-0.2c0.1-0.1,0.2-0.2,0.3-0.2c0.5-0.3,0.9-0.5,1.3-0.7
	c0.2-0.1,0.4-0.2,0.6-0.2c0.1,0,0.2,0,0.3-0.1c0.1,0,0.2,0,0.2-0.1c1-0.5,2.1-0.8,3.2-1c1.1-0.2,2.2-0.2,3.4-0.2
	c0.5,0,1.1,0.1,1.7,0.2c0.5,0.1,1.1,0.2,1.6,0.4c0.5,0.2,1,0.4,1.6,0.6l0.4,0.2l0.2,0.1l0.2,0.1l0.4,0.2l0.3,0.2
	c0.2,0.1,0.3,0.3,0.4,0.3c0,0,0,0-0.1,0c-0.1,0-0.2-0.1-0.2-0.2c-1.3-0.8-2.9-1.5-4.4-1.8c-0.8-0.2-1.6-0.3-2.4-0.3
	c-0.8,0-1.6,0-2.4,0.2c0.7-0.1,1.3-0.1,2-0.1c0.7,0,1.3,0.1,2,0.2c0.7,0.1,1.3,0.3,2,0.5l0.2,0.1l0.1,0l0.1,0
	c0.2,0.1,0.3,0.1,0.5,0.2c0.3,0.2,0.6,0.3,0.9,0.4c0.1,0,0.2,0.1,0.2,0.1c0.1,0,0.2,0.1,0.2,0.1l0.2,0.1l0.1,0.1l0.1,0.1
	c0.2,0.1,0.3,0.2,0.4,0.3c0.2,0.1,0.3,0.2,0.4,0.3c1.4,1,2.5,2.3,3.5,3.7c0.9,1.5,1.5,3.1,1.8,4.8c0.3,1.5,0.3,2.9,0,4.4
	c0,0.3-0.1,0.7-0.2,1c0,0.2-0.1,0.3-0.1,0.5c0,0.1,0,0.2-0.1,0.3c0,0.1,0,0.2-0.1,0.3c-0.2,0.7-0.5,1.4-0.8,2.1
	c-0.5,1-1.1,1.8-1.8,2.6c-0.7,0.8-1.5,1.5-2.3,2.1l-0.1,0.1l-0.1,0l-0.2,0.1c-0.1,0.1-0.2,0.2-0.3,0.2L38,45.2
	c-0.1,0.1-0.2,0.2-0.3,0.2c-0.2,0.1-0.5,0.2-0.7,0.3c-0.1,0-0.2,0.1-0.3,0.2l-0.3,0.2c-0.5,0.2-1,0.3-1.5,0.5
	c-0.1,0-0.3,0.1-0.4,0.1l-0.2,0l-0.1,0h-0.1c-0.1,0-0.3,0-0.4,0.1c-0.1,0-0.1,0-0.2,0l-0.2,0c-0.2,0-0.3,0-0.4,0c-0.1,0-0.3,0-0.3,0
	c-0.2,0-0.3,0-0.4-0.1c0,0,0-0.1,0.2-0.1c0.1,0,0.2,0,0.3,0c0.1,0,0.1,0,0.2,0c0.1,0,0.1,0,0.2,0c1.1-0.2,2.2-0.5,3.2-0.9
	c1-0.4,2-1,2.9-1.6c0.1-0.1,0.2-0.2,0.3-0.2l0.3-0.3l0.2-0.1l0.2-0.2l0.3-0.3c0.4-0.4,0.8-0.8,1.1-1.2c0.2-0.2,0.3-0.4,0.5-0.7
	c0,0,0.1-0.1,0.1-0.2l0.1-0.2l0.1-0.2c0,0,0.1-0.1,0.1-0.2c0.2-0.2,0.3-0.5,0.4-0.7c0.1-0.1,0.1-0.2,0.2-0.3l0.2-0.4
	c0-0.1,0.1-0.1,0.1-0.2l0.1-0.2l0.2-0.4l0.2-0.4l0.1-0.2c0-0.1,0-0.1,0.1-0.2l0.1-0.4c0-0.1,0.1-0.3,0.1-0.4l0-0.2l0-0.1l0-0.1
	l0.1-0.4c0-0.1,0-0.3,0.1-0.4c0-0.1,0-0.3,0.1-0.4l0-0.4l0-0.2v-0.2l0-0.4c0-0.2,0-0.3,0-0.4v-0.2c0-0.1,0-0.2,0-0.2v-0.4
	c0-0.1,0-0.2,0-0.2v-0.2l0-0.4l0-0.4c0-0.2,0-0.3-0.1-0.4c0-0.2,0-0.3-0.1-0.4c0-0.2-0.1-0.3-0.1-0.4l0-0.2l0-0.1l0-0.1
	c0-0.1-0.1-0.3-0.1-0.4c0-0.1-0.1-0.3-0.1-0.4c0-0.1-0.1-0.3-0.2-0.4c-0.1-0.3-0.2-0.5-0.3-0.8c-0.2-0.5-0.5-1-0.8-1.5
	c-0.5-0.8-1.1-1.6-1.7-2.3v0c0,0-0.1,0-0.2-0.1c0.4,0.4,0.7,0.8,1,1.2c0.2,0.2,0.3,0.4,0.5,0.7c0,0,0.1,0.1,0.1,0.2l0.1,0.2l0.1,0.2
	c0,0,0.1,0.1,0.1,0.2c0.4,0.6,0.7,1.3,1,2c0.3,0.7,0.5,1.4,0.7,2.2c0.3,1.5,0.3,3.1,0,4.7c-0.1,0.5-0.2,1.1-0.4,1.6
	c-0.2,0.5-0.4,1-0.6,1.4c-0.2,0.5-0.5,0.9-0.8,1.3c-0.1,0.1-0.2,0.2-0.2,0.3c-0.1,0.1-0.2,0.2-0.2,0.3c-0.2,0.2-0.3,0.4-0.5,0.6
	l-0.2,0.2l-0.1,0.1l-0.1,0.1l-0.3,0.4c-0.2,0.2-0.4,0.5-0.7,0.7l-0.2,0.2c0,0-0.1,0.1-0.2,0.2c-0.1,0.1-0.2,0.2-0.3,0.3l-0.4,0.3
	c-0.1,0-0.1,0.1-0.2,0.2l-0.2,0.2c-1,0.8-2.2,1.3-3.4,1.8c-0.1,0-0.2,0.1-0.2,0c0,0,0,0,0.1-0.1c1.7-0.6,3.3-1.6,4.6-2.8
	c-0.2,0.2-0.4,0.2-0.4,0.2c0-0.1,0.1-0.3,0.3-0.5c-0.2,0.1-0.3,0.3-0.5,0.4c-0.2,0.1-0.3,0.2-0.5,0.4c-0.2,0.2-0.4,0.2-0.4,0.2
	c0,0,0.1-0.2,0.3-0.3c1.3-1,2.4-2.2,3.2-3.6c0.5-0.8,0.8-1.7,1.1-2.7c0.3-0.9,0.4-1.9,0.5-2.9c-0.1,0.3-0.1,0.5-0.2,0.5
	c0,0.3-0.1,0.6-0.1,0.9c-0.1,0.7-0.2,1.3-0.5,2c-0.2,0.7-0.5,1.3-0.8,1.9c-0.3,0.6-0.7,1.2-1.1,1.7s-0.9,1-1.4,1.5
	c-1,0.9-2.2,1.7-3.6,2.2c-0.7,0.3-1.3,0.5-2,0.6c-0.2,0-0.3,0.1-0.5,0.1l-0.5,0.1c-0.2,0-0.3,0-0.5,0c-0.1,0-0.2,0-0.3,0h-0.3
	c-0.1,0-0.2,0-0.2,0c0,0,0.1,0,0.2,0c1.7,0,3.4-0.4,4.9-1.1c-0.1,0-0.1,0,0,0c0,0,0.2-0.1,0.2-0.1c0.1,0,0.1,0,0,0
	c1.4-0.7,2.7-1.7,3.7-2.9s1.8-2.5,2.2-4c-0.5,1.3-1.2,2.6-2.1,3.7c-0.9,1.1-2,2-3.2,2.7l-0.2,0.1c-0.1,0-0.1,0.1-0.2,0.1
	c-0.1,0-0.1,0.1-0.2,0.1c-0.1,0-0.1,0.1-0.2,0.1c-0.1,0-0.2,0.1-0.2,0.1c0,0,0,0,0.1-0.1c0.1,0,0.2-0.1,0.2-0.1
	c-0.1,0-0.1,0-0.2,0.1c0,0-0.1,0-0.2,0.1c-0.1,0-0.2,0.1-0.3,0.1c-0.2,0-0.3,0-0.3,0c0,0,0.1-0.1,0.3-0.2c0.1,0,0.2-0.1,0.3-0.2
	c0,0,0.1,0,0.2-0.1c0,0,0.1-0.1,0.2-0.1c1.3-0.7,2.5-1.5,3.4-2.6l0.3-0.3c0.1-0.1,0.2-0.3,0.3-0.4c-0.7,0.9-1.5,1.7-2.4,2.3
	c-0.9,0.7-1.9,1.2-2.9,1.5C35.2,44,35,44,35,44c0,0,0.1-0.1,0.3-0.2c0.1,0,0.2-0.1,0.3-0.2c0.1,0,0.2-0.1,0.3-0.2l0.3-0.2
	c0,0,0.1,0,0.2-0.1l0.2-0.1l0.3-0.2l0.3-0.2l0.2-0.1l0.2-0.1l0.3-0.2l0.3-0.2l0.2-0.1c0,0,0.1-0.1,0.2-0.1l0.3-0.2l0.3-0.2l0.1-0.1
	c0,0,0.1-0.1,0.1-0.1l0.3-0.3c0.1-0.1,0.2-0.2,0.2-0.3l0.1-0.1c0,0,0.1-0.1,0.1-0.2l0.2-0.3c0.1-0.1,0.2-0.2,0.2-0.3l0.1-0.2
	c0,0,0.1-0.1,0.1-0.2l0.2-0.3c0.1-0.1,0.1-0.2,0.2-0.3l0.1-0.2c0,0,0.1-0.1,0.1-0.2l0.2-0.3c0-0.1,0.1-0.2,0.2-0.3
	c0.4-0.8,0.7-1.8,0.9-2.7c0.2-1.2,0.1-2.5-0.2-3.7c0,0.2,0,0.3,0,0.5c0,0.1,0,0.2,0,0.4c0,0.1,0,0.2,0,0.4c0,0.1,0,0.1,0,0.2
	c0,0.1,0,0.1,0,0.2c0,0.1,0,0.2,0,0.3s0,0.2,0,0.3c0,0.1,0,0.1,0,0.2c0,0.1,0,0.1,0,0.2c0,0.1,0,0.2,0,0.3c0,0.1,0,0.2,0,0.3l0,0.2
	c0,0.1,0,0.1,0,0.2c0,0.1,0,0.2-0.1,0.3c0,0.1,0,0.2-0.1,0.3c0,0.1,0,0.2-0.1,0.3c0,0.1-0.1,0.2-0.1,0.3c0,0.1-0.1,0.2-0.1,0.3
	c-0.1,0.2-0.2,0.4-0.2,0.7c-0.2,0.4-0.4,0.8-0.6,1.3c-0.1,0.2-0.2,0.4-0.4,0.6c-0.1,0.1-0.2,0.2-0.2,0.3c-0.1,0.1-0.2,0.2-0.2,0.3
	c-0.1,0.1-0.2,0.2-0.2,0.3c-0.1,0.1-0.2,0.2-0.2,0.3c-0.2,0.2-0.3,0.3-0.5,0.5c-0.1,0.1-0.2,0.2-0.3,0.3l-0.2,0.1
	c0,0-0.1,0.1-0.2,0.1c-0.1,0.1-0.2,0.2-0.3,0.2c-0.1,0.1-0.2,0.2-0.3,0.2c-0.1,0.1-0.2,0.1-0.2,0.1c0,0,0,0,0.1-0.1
	c0.1-0.1,0.2-0.2,0.3-0.2c0.1-0.1,0.2-0.2,0.3-0.2c0.2-0.2,0.3-0.3,0.5-0.5c0.3-0.3,0.7-0.7,0.9-1c0.6-0.7,1-1.5,1.4-2.4
	c0.3-0.7,0.5-1.5,0.7-2.2c0.2-0.7,0.2-1.5,0.2-2.2c0,1.5-0.3,2.9-0.9,4.2c-0.6,1.3-1.4,2.5-2.5,3.5c-0.1,0.1-0.2,0.2-0.3,0.2
	c0,0,0,0,0,0.1c-0.3,0.3-0.6,0.5-0.9,0.8c-0.1,0-0.2,0.1-0.2,0.1C36.8,42.9,36.9,42.9,36.9,42.8z M21,41C21,41.1,21,41.1,21,41
	c0,0-0.1-0.1-0.1-0.2v0c0,0,0-0.1,0-0.1c0,0,0-0.1-0.1-0.2c0,0,0,0.1,0.1,0.2C20.9,40.7,20.9,40.9,21,41z M25.2,44.1
	c0,0,0.1,0.1,0.1,0.1l0,0C25.2,44.3,25.2,44.2,25.2,44.1z M31.9,20.5c-1-0.1-1.9,0-2.9,0.1c-0.9,0.1-1.8,0.3-2.8,0.7
	c0.2-0.1,0.4-0.2,0.7-0.2l0.2,0c0,0,0.1,0,0.2,0l0.3-0.1c0.7-0.2,1.4-0.3,2.1-0.3C30.5,20.4,31.2,20.4,31.9,20.5z M23.2,43.9
	c-0.3-0.3-0.6-0.7-0.8-1c-0.1-0.1-0.2-0.2-0.3-0.3c-0.1-0.1-0.2-0.2-0.3-0.3c-0.6-0.7-1.1-1.4-1.6-2.2c0,0.1-0.1-0.1-0.2-0.2
	c0-0.1-0.1-0.2-0.2-0.3c0.4,0.8,0.9,1.6,1.5,2.4c0.1,0.1,0.2,0.2,0.2,0.3c0.1,0.1,0.2,0.2,0.2,0.2c0.2,0.2,0.3,0.3,0.5,0.5
	C22.6,43.3,22.9,43.6,23.2,43.9z M29.3,46.3C29.3,46.3,29.3,46.3,29.3,46.3l-0.1,0.1C29.2,46.3,29.2,46.3,29.3,46.3z M29.5,46.2
	c0,0-0.1,0-0.1,0C29.5,46.1,29.5,46.2,29.5,46.2z M28.4,45.9c0.1,0,0.1,0,0.2,0.1C28.4,45.9,28.4,45.9,28.4,45.9z M28,44
	c-0.1,0-0.2,0.1-0.2,0.1l-0.2,0.1l0.3-0.1L28,44z"/>
</svg>
